<?xml version="1.0" encoding="UTF-8" standalone="no"?>
<!DOCTYPE svg PUBLIC "-//W3C//DTD SVG 1.1//EN" "http://www.w3.org/Graphics/SVG/1.1/DTD/svg11.dtd">
<svg width="100%" height="100%" viewBox="0 0 2607 1835" version="1.1" xmlns="http://www.w3.org/2000/svg" xmlns:xlink="http://www.w3.org/1999/xlink" xml:space="preserve" xmlns:serif="http://www.serif.com/" style="fill-rule:evenodd;clip-rule:evenodd;stroke-linejoin:round;stroke-miterlimit:2;">
    <path id="lib-eg-fra" d="M2484,1556c22,0 41,17 31,56l-101,27c16,-48 46,-83 70,-83m56,164l-20,0c-25,30 -53,54 -80,54c-28,0 -42,-17 -42,-54c0,-15 2,-31 5,-45l164,-54c32,-76 -7,-109 -52,-109c-78,0 -166,136 -166,243c0,51 24,79 62,79c45,0 91,-43 129,-114m-26,-244l93,-85l0,-12l-62,0l-55,98l24,0l0,-1Zm-349,82l54,0l-86,236c-8,20 3,40 24,40c61,0 134,-52 162,-126l-15,0c-22,31 -70,65 -106,72l79,-222l81,0l10,-34l-79,0l30,-85l-31,0l-56,85l-67,9l0,25Zm-56,-12c7,-22 -8,-34 -19,-34c-47,0 -104,43 -126,102l15,0c15,-22 41,-46 66,-50l-91,236c-8,22 8,34 20,34c45,0 98,-43 120,-102l-15,0c-15,22 -41,46 -66,50l96,-236Zm9,-94c20,0 37,-17 37,-37c0,-20 -17,-37 -37,-37c-21,0 -37,17 -37,37c0,21 16,37 37,37m-439,126c14,0 22,22 0,71l-64,142c-12,27 1,44 27,44c16,0 23,-4 30,-21l63,-166c29,-36 83,-74 107,-74c17,0 15,14 4,36l-97,185c-9,18 3,40 24,40c47,0 104,-43 126,-102l-17,0c-15,22 -41,46 -66,50l83,-168c11,-21 16,-41 16,-57c0,-27 -15,-45 -44,-45c-41,0 -76,46 -126,103l0,-44c0,-31 -10,-59 -38,-59c-33,0 -63,52 -87,102l15,0c17,-24 32,-37 44,-37m-65,6c11,-39 5,-72 -24,-72c-37,0 -49,25 -85,103l0,-44c0,-31 -10,-59 -38,-59c-33,0 -63,52 -87,102l15,0c16,-23 31,-37 43,-37c14,0 22,22 0,71l-64,142c-12,27 1,44 27,44c16,0 23,-4 30,-21l61,-166c18,-22 34,-41 54,-62l68,0l0,-1Zm-349,-28c22,0 41,17 31,56l-101,27c17,-48 46,-83 70,-83m56,164l-20,0c-25,30 -53,54 -80,54c-28,0 -42,-17 -42,-54c0,-15 2,-31 5,-45l164,-54c32,-76 -6,-109 -52,-109c-78,0 -166,136 -166,243c0,51 24,79 62,79c45,0 91,-43 129,-114m-375,-162l54,0l-86,236c-8,20 3,40 24,40c61,0 135,-52 162,-126l-15,0c-22,31 -70,65 -106,72l79,-222l81,0l10,-34l-79,0l30,-85l-31,0l-56,85l-67,9l0,25Zm-287,184c0,-73 81,-172 127,-172c10,0 20,1 28,4l-47,126c-27,33 -69,73 -89,73c-12,0 -19,-9 -19,-31m249,-244l-25,-2l-28,28l-5,0c-119,0 -247,148 -247,265c0,27 15,45 44,45c35,0 69,-50 108,-103l-2,19c-5,54 12,84 40,84c33,0 63,-52 86,-102l-15,0c-16,23 -31,37 -43,37c-12,0 -21,-23 0,-71l87,-200Zm-255,86c11,-39 5,-72 -24,-72c-37,0 -49,25 -85,103l0,-44c0,-31 -10,-59 -39,-59c-33,0 -63,52 -86,102l15,0c16,-23 31,-37 43,-37c14,0 22,22 0,71l-65,143c-12,27 1,44 27,44c16,0 23,-4 30,-21l63,-167c18,-22 34,-41 54,-62l67,0l0,-1Zm-419,239l6,-18c-79,-15 -89,-15 -57,-101l30,-81l63,0c39,0 40,17 34,60l23,0l52,-143l-23,0c-20,34 -35,60 -78,60l-63,0l43,-117c15,-42 22,-50 76,-50l14,0c55,0 62,15 62,73l22,0l18,-97l-305,0l-6,18c63,13 69,19 40,101l-65,177c-30,81 -42,88 -115,101l-5,18l234,0l0,-1Zm1513,-956c22,0 41,17 31,56l-101,27c16,-48 46,-83 70,-83m56,164l-20,0c-25,30 -53,54 -80,54c-28,0 -42,-17 -42,-54c0,-15 2,-31 5,-45l164,-54c32,-76 -7,-109 -52,-109c-78,0 -166,136 -166,243c0,51 24,79 62,79c45,1 91,-43 129,-114m-26,-244l93,-85l0,-12l-62,0l-55,98l24,0l0,-1Zm-349,82l54,0l-86,236c-8,20 3,40 24,40c61,0 134,-52 162,-126l-15,0c-22,31 -70,65 -106,72l79,-222l81,0l10,-34l-79,0l30,-85l-31,0l-56,85l-67,10l0,24Zm-56,-11c7,-22 -8,-34 -20,-34c-47,0 -104,43 -126,102l15,0c15,-22 41,-46 66,-50l-91,236c-8,22 8,34 20,34c45,0 98,-43 120,-102l-15,0c-15,22 -41,46 -66,50l97,-236Zm9,-94c20,0 37,-17 37,-37c0,-20 -17,-37 -37,-37c-21,0 -37,17 -37,37c0,20 16,37 37,37m-290,330l150,-398l-5,-7l-104,12l0,12l20,15c18,14 12,27 -4,72l-114,304c-10,18 3,40 24,40c47,0 98,-43 120,-102l-15,0c-16,23 -48,47 -72,52m-306,-41c0,-73 81,-172 127,-172c10,0 19,1 28,4l-48,126c-27,33 -69,73 -89,73c-11,1 -18,-9 -18,-31m249,-243l-25,-2l-28,28l-5,0c-119,0 -247,148 -247,265c0,27 15,45 44,45c35,0 69,-50 108,-103l-2,19c-5,54 12,84 40,84c33,0 63,-52 86,-102l-15,0c-16,23 -31,37 -43,37c-12,0 -21,-23 0,-70l87,-201Zm-579,393c0,-31 30,-51 73,-68c14,7 36,15 64,24c45,15 62,21 62,34c0,29 -41,51 -116,51c-56,1 -83,-11 -83,-41m123,-191c-20,0 -27,-17 -27,-36c0,-59 28,-130 73,-130c20,0 27,17 27,36c0,58 -29,130 -73,130m128,162c0,-38 -34,-52 -89,-68c-47,-14 -69,-18 -69,-34c0,-12 10,-27 30,-38c78,-4 127,-74 127,-136c0,-11 -2,-21 -5,-30l53,0l10,-34l-90,0c-12,-8 -27,-12 -44,-12c-82,0 -135,72 -135,136c0,41 24,69 62,74c-38,18 -60,37 -60,61c0,14 5,24 17,33c-88,26 -124,59 -124,97c0,41 54,58 118,58c108,1 199,-58 199,-107m-408,-240c39,0 40,17 34,60l23,0l52,-143l-23,0c-20,34 -35,60 -78,60l-87,0l43,-117c15,-42 23,-50 76,-50l38,0c55,0 62,15 62,73l22,0l18,-97l-327,0l-6,18c63,13 69,19 40,101l-65,177c-30,81 -42,88 -115,101l-5,18l364,0l65,-103l-25,0c-42,42 -85,79 -166,79c-97,0 -88,-5 -56,-95l30,-81l86,0l0,-1Zm47,-244l93,-68l0,-12l-62,0l-55,80l24,0Zm1390,-511c22,0 41,17 31,56l-101,27c16,-49 46,-83 70,-83m56,164l-20,0c-25,30 -53,54 -80,54c-28,0 -42,-17 -42,-54c0,-15 2,-31 5,-45l164,-54c32,-76 -7,-109 -52,-109c-78,0 -166,136 -166,243c0,51 24,79 62,79c45,0 91,-43 129,-114m-26,-244l93,-85l0,-12l-62,0l-55,98l24,0l0,-1Zm-349,81l55,0l-86,236c-8,20 3,40 24,40c61,0 135,-52 162,-126l-15,0c-22,31 -70,65 -106,72l79,-222l81,0l10,-34l-79,0l30,-85l-31,0l-56,85l-67,9l0,25l-1,0Zm-28,27c11,-39 5,-72 -24,-72c-37,0 -49,25 -85,103l0,-44c0,-31 -10,-59 -38,-59c-33,0 -63,52 -87,102l15,0c16,-23 31,-37 43,-37c14,0 22,22 0,71l-64,142c-12,27 1,44 27,44c16,0 23,-4 30,-21l63,-166c18,-22 34,-41 54,-62l66,0l0,-1Zm-349,-28c22,0 41,17 31,56l-101,27c16,-49 46,-83 70,-83m56,164l-20,0c-25,30 -53,54 -80,54c-28,0 -42,-17 -42,-54c0,-15 2,-31 5,-45l164,-54c32,-76 -6,-109 -52,-109c-78,0 -166,136 -166,243c0,51 24,79 62,79c45,0 91,-43 129,-114m-382,66c-16,0 -39,-15 -39,-28c0,-4 7,-23 16,-46l26,-70c28,-34 72,-71 97,-71c15,0 26,10 26,31c-1,66 -61,184 -126,184m182,-209c0,-48 -12,-66 -46,-66c-42,0 -81,45 -121,99l84,-226l-5,-7l-104,12l0,12l20,15c18,14 12,28 -4,72l-91,239c-8,20 -17,44 -17,50c0,28 38,55 73,55c79,2 211,-143 211,-255m-307,-31c6,-22 -8,-34 -20,-34c-47,0 -104,43 -126,102l15,0c15,-22 41,-46 66,-50l-91,236c-8,22 8,34 20,34c45,0 98,-43 120,-102l-15,0c-15,22 -41,46 -66,50l97,-236Zm10,-94c20,0 37,-17 37,-37c0,-20 -17,-37 -37,-37c-21,0 -37,17 -37,37c0,20 16,37 37,37m-231,-45l-216,0l-6,18c63,13 69,19 40,101l-65,177c-30,81 -42,88 -115,101l-5,18l328,0l71,-127l-25,0c-41,45 -88,102 -161,102c-55,0 -63,-10 -32,-95l65,-177c30,-81 42,-88 115,-101l6,-17Z" style="fill-rule:nonzero;"/>
</svg>
