<?xml version="1.0" encoding="UTF-8" standalone="no"?>
<!DOCTYPE svg PUBLIC "-//W3C//DTD SVG 1.1//EN" "http://www.w3.org/Graphics/SVG/1.1/DTD/svg11.dtd">
<svg width="100%" height="100%" viewBox="0 0 2756 1000" version="1.1" xmlns="http://www.w3.org/2000/svg" xmlns:xlink="http://www.w3.org/1999/xlink" xml:space="preserve" xmlns:serif="http://www.serif.com/" style="fill-rule:evenodd;clip-rule:evenodd;stroke-linejoin:round;stroke-miterlimit:2;">
    <g id="marianne">
        <path id="blue" d="M1145,884c11,-11 22,-22 32,-34c20,-23 40,-44 63,-64c7,-6 14,-12 21,-16c2,-2 2,-6 4,-8c-9,4 -15,11 -25,15c-2,0 -4,-2 -2,-4c7,-5 14,-10 20,-15l-1,0c-2,0 -2,-2 -2,-4c-25,-4 -43,13 -60,28c-4,2 -8,-2 -9,-2c-28,9 -49,34 -77,45l0,-4c-11,4 -22,11 -34,13c-17,4 -32,2 -47,2c-23,2 -46,7 -69,12c-1,0 -1,0 -2,1c-12,3 -24,8 -35,14l-4,4c-4,4 -8,9 -13,11c-12,6 -21,16 -31,25c-1,1 -2,1 -3,1c-10,10 -20,20 -30,29c-1,1 -4,1 -6,1c0,-1 1,-1 1,-2c2,-3 3,-5 5,-8l6,-9c3,-4 5,-8 8,-11c1,-1 1,-2 0,-2c-1,-1 -2,-1 -3,-1c9,-9 21,-17 32,-24c-1,0 -3,-1 -2,-2c1,-2 2,-3 3,-5c0,-1 0,-1 1,-2c0,-1 -1,-1 -1,-2l-9,6c-5,4 -8,12 -15,12l-3,0c-1,0 -2,0 -2,-1l0,-1c0,-1 1,-1 1,-2c0,-1 1,-1 1,-2c0,0 0,-1 1,-1c0,-1 1,-2 1,-2c0,-1 1,-1 1,-2c1,-1 2,-3 2,-4c0,-1 1,-1 1,-2c1,-1 1,-2 2,-3c1,-2 0,-3 -1,-3c3,-5 8,-8 13,-11l-1,0c7,-4 15,-8 22,-12l3,-3c-11,4 -20,9 -30,15c0,0 -2,1 -3,2c0,0 -2,1 -5,-2l0,-1c2,-4 8,-6 11,-9c2,0 4,0 4,2c61,-47 144,-36 214,-60c6,-4 11,-8 17,-11c9,-4 17,-13 28,-19c15,-11 26,-25 32,-43c0,-2 -2,-4 -2,-4c-25,26 -53,47 -83,62c-40,21 -83,17 -125,23c2,-4 6,-4 9,-4c0,-6 4,-8 8,-11l6,0c2,0 2,-4 4,-4c4,0 10,-2 8,-2c-6,-8 -17,6 -26,0c4,-4 2,-9 6,-11l8,0c0,-4 4,-8 4,-8c28,-17 55,-30 81,-45c-6,0 -9,6 -15,2c4,0 0,-6 4,-6c21,-6 38,-17 59,-25c-8,0 -13,6 -21,0c4,-2 6,-6 11,-6l0,-6c0,-2 2,-2 4,-2c-2,0 -4,-2 -4,-2c2,-4 8,-2 11,-6c-2,0 -6,0 -6,-2c6,-8 15,-9 25,-11c-2,-4 -8,0 -8,-4c0,-2 2,-2 4,-2l-4,0c-4,-2 -2,-6 -2,-8c11,-13 11,-30 17,-45c-2,0 -4,0 -4,-2c-19,21 -49,28 -77,36l-13,0c-9,4 -23,4 -32,-2c-8,-4 -11,-9 -19,-15c-15,-9 -30,-17 -47,-23c-47,-15 -96,-23 -145,-21c21,-11 44,-12 66,-19c32,-9 62,-21 96,-19c-6,-2 -13,0 -19,0c-26,-2 -53,6 -81,11c-19,4 -36,11 -55,15c-11,4 -17,15 -30,13l0,-6c19,-23 42,-45 72,-47c34,-6 66,0 100,4c25,2 47,8 72,13c9,0 11,15 19,17c11,4 23,0 34,8c0,-4 -2,-8 0,-11c8,-8 17,2 25,-2c15,-9 -13,-26 -21,-40c0,-2 2,-4 2,-4c15,13 26,28 45,38c9,4 32,9 28,-2c-9,-21 -28,-38 -44,-57l0,-8c-4,0 -4,-2 -6,-4l0,-8c-8,-4 -6,-11 -9,-17c-6,-9 -2,-23 -6,-34c-4,-11 -6,-21 -8,-32c-6,-32 -13,-60 -17,-91c-4,-36 21,-64 38,-96c13,-23 28,-45 53,-60c6,-23 21,-42 36,-60c15,-18 40,-30 58,-38c26,-12 50,-19 50,-19l-1304,0l0,1000l927,0c36,-26 72,-38 122,-63c24,-10 78,-35 96,-53m-290,-136c-4,0 -11,2 -9,-2c2,-9 15,-9 23,-13c4,-2 9,-6 13,-4c4,6 9,4 13,8c-12,11 -27,6 -40,11m-290,-41c0,0 -2,-2 -2,-4c25,-32 43,-62 61,-96c25,-13 45,-32 64,-53c32,-34 66,-64 106,-83c15,-6 34,-4 49,2c-6,8 -15,6 -23,11c-2,0 -4,0 -6,-2c2,-2 2,-4 2,-6c-19,21 -45,30 -60,55c-11,19 -19,43 -43,49c-8,2 2,-6 -2,-4c-59,36 -100,80 -146,131m157,-125c-2,4 -4,4 -6,8c-2,4 -4,6 -8,8c-2,0 -4,0 -4,-2c2,-8 8,-15 15,-17c3,-1 3,1 3,3m88,283c-1,2 -3,4 -5,6c2,0 4,2 2,3c-4,4 -9,8 -14,10l-3,0c-2,2 -5,4 -7,7c-2,2 -13,1 -10,-2c5,-4 9,-9 14,-13c3,-2 6,-5 8,-8c1,-2 2,-3 4,-4c3,-2 13,-3 11,1m-34,-15c-8,5 -15,10 -22,15c-8,5 -17,8 -25,12c-1,-1 -2,-1 -3,-1c-7,4 -13,9 -19,15l-10,10c-1,1 -1,2 -3,3c-1,1 -4,1 -4,-1c-1,1 -2,1 -3,2c-1,1 -2,1 -3,2l-2,0c-2,2 -5,4 -7,6c-4,4 -8,7 -11,12l0,1l-1,1c0,0 0,1 -1,1c0,1 -1,1 -1,2c0,0 -1,1 -2,1l-1,-1c0,0 0,-1 -1,-1c-1,-1 -1,-2 -2,-3l0,-1c2,-2 4,-4 6,-7c1,-1 1,-2 2,-2c1,-1 2,-3 3,-4c0,-1 1,-1 1,-2c2,-3 4,-5 6,-8l1,-1c1,-1 2,-3 3,-4c1,-1 1,-2 2,-4l0,-1c1,-2 1,-3 2,-4l0,-1c0,-1 0,-1 1,-2c0,-1 0,-2 1,-3l0,-1c2,-4 5,-7 8,-10l-1,0c-3,2 -5,4 -7,6c-2,2 -6,-1 -3,-3c2,-1 3,-3 4,-4c3,-3 6,-7 10,-10c2,-2 4,-3 6,-4l1,-1c1,-2 3,-3 4,-5c18,-17 49,-17 72,-28c9,-4 21,2 30,0c6,0 11,0 17,4c-17,3 -32,14 -48,24m39,-132c-2,-2 6,0 8,-4l-15,0c-2,0 -2,-2 -2,-4c-9,2 -21,6 -30,8c-13,4 -25,13 -40,17c-21,8 -38,25 -60,32c-2,0 -2,-2 -2,-4c2,-6 9,-8 13,-13c0,-2 0,-4 -2,-4c15,-21 36,-32 55,-49l0,-6c6,-8 15,-11 19,-21c2,-6 10,-13 19,-17c-2,-2 -6,-2 -6,-6c-8,0 -15,4 -23,-2c4,-3 8,-5 12,-7c-2,0 -3,-1 -4,-3c-2,-4 4,-8 9,-9c8,-2 17,-2 23,-8c-13,-2 -28,4 -42,-4c9,-25 25,-45 47,-57c2,0 6,0 6,2c0,9 -6,17 -15,19c15,4 30,4 45,11c-2,4 -6,2 -8,2c9,6 21,2 30,9c-6,6 -11,0 -17,0c59,17 121,30 170,68c-42,21 -85,30 -130,40c-6,0 -9,0 -15,-2c0,2 0,6 -2,6c-8,0 -13,0 -19,4c-7,6 -18,8 -24,2" style="fill:#000091;fill-rule:nonzero;"/>
        <path id="grey" d="M1745,366c8,2 19,2 19,6c-4,15 -26,19 -38,34l-6,0c-6,4 -4,13 -9,13c-6,-2 -11,0 -17,2c8,8 17,13 28,11c2,0 6,4 6,8c0,0 2,0 4,-2c2,0 4,0 4,2l0,8c-6,8 -15,4 -23,6c15,4 30,4 44,0c11,-4 0,-23 8,-32c-4,0 0,-6 -4,-6c4,-4 8,-9 11,-11c4,0 9,-2 11,-6c0,-4 -8,-6 -6,-9c11,-8 21,-19 17,-30c-2,-6 -17,-6 -26,-10c-9,-4 -21,0 -32,2c-9,0 -19,6 -28,8c-13,4 -25,11 -36,19c13,-6 26,-8 41,-11c11,-2 20,-4 32,-2" style="fill:#808080;fill-rule:nonzero;"/>
        <path id="red" d="M2756,0l-1075,0c0,0 2,0 10,5c9,5 20,11 27,14c14,7 27,16 36,30c4,6 9,17 6,25c-4,9 -6,25 -15,28c-11,6 -26,6 -40,4c-8,0 -15,-2 -23,-4c28,11 55,25 74,51c2,4 9,6 17,6c2,0 2,4 2,6c-4,4 -8,6 -6,11l6,0c9,-4 8,-23 21,-17c9,6 13,19 8,28c-8,8 -15,13 -23,19c-2,4 -2,9 0,13c6,8 8,15 9,23c6,13 8,28 13,42c8,28 15,57 13,85c0,15 -8,28 -2,43c4,15 13,26 21,40c8,11 15,19 21,30c11,19 32,38 23,59c-6,13 -26,11 -40,19c-11,9 -2,25 4,34c9,17 -11,28 -25,34c4,6 11,4 13,8c2,9 11,15 6,25c-8,11 -30,17 -19,34c8,13 3,28 -2,42c-6,17 -21,25 -34,28c-11,4 -25,4 -36,2c-4,-2 -8,-4 -11,-4c-32,-4 -64,-13 -96,-13c-9,2 -19,4 -26,7c-9,6 -16,13 -23,20c-1,2 -3,3 -4,5c-1,1 -2,2 -2,3l-2,2c-6,7 -10,14 -15,22c0,1 -1,1 -1,1c0,1 -1,2 -2,3c-6,11 -11,23 -14,35c-13,43 -7,80 2,89c2,2 62,21 104,40c20,9 33,15 45,23l1055,0l0,-1000Z" style="fill:#e1000f;fill-rule:nonzero;"/>
    </g>
</svg>
